<svg width="500" height="500" viewBox="0 0 500 500" fill="none" xmlns="http://www.w3.org/2000/svg">
<path d="M230.105 13.2039C219.2 19.2807 210.293 24.525 210.293 25.0244C210.293 25.4407 218.701 30.6017 229.023 36.512C247.836 47.2503 247.836 47.2503 267.897 35.846C278.885 29.6028 287.709 24.1088 287.459 23.7758C287.126 23.1931 274.806 16.0342 254.578 4.79638C250 2.21585 250 2.21585 230.105 13.2039Z" fill="#F5ECDA"/>
<path d="M314.926 48.588C310.348 51.2517 300.359 56.7458 292.7 60.8247C285.042 64.9868 278.715 68.5663 278.715 68.8992C278.715 69.3987 289.287 75.9749 292.451 77.4733C293.616 77.9727 292.867 78.4722 276.967 87.3792C263.149 95.0376 263.149 95.0376 241.173 82.2181C220.029 69.8982 187.897 51.5015 179.24 46.7566C175.078 44.4258 175.078 44.4258 155.516 55.3306C144.777 61.3241 135.954 66.6517 135.954 67.1511C135.954 68.2333 161.925 83.6333 163.674 83.7165C164.256 83.7165 168.169 81.6354 172.331 79.1381C176.493 76.6408 179.989 74.5598 180.156 74.5598C180.239 74.5598 187.814 78.9717 196.888 84.2992C205.961 89.6268 214.951 94.7878 216.866 95.7867C218.78 96.7024 220.362 97.7846 220.362 98.284C220.362 98.7002 216.366 101.281 211.455 103.945C184.651 118.595 113.977 159.135 114.227 159.884C114.643 161.299 136.703 173.619 138.201 173.286C138.95 173.12 163.59 159.301 192.975 142.486C222.36 125.754 246.667 112.019 247.083 112.019C247.499 112.019 250.163 113.434 253.077 115.266C263.732 121.759 324.333 156.97 328.079 158.802C330.243 159.884 331.991 160.966 331.991 161.299C331.991 161.715 330.909 162.464 329.577 162.964C323.583 165.628 300.442 179.113 300.608 179.862C300.858 180.611 314.593 189.102 321.669 192.931C325.082 194.679 325.082 194.679 351.22 179.862C375.943 165.877 380.272 163.214 379.356 162.548C379.19 162.381 370.033 157.054 359.045 150.727C348.057 144.401 330.243 134.079 319.504 127.835C308.766 121.592 299.193 116.181 298.361 115.848C296.363 115.182 297.112 114.35 302.606 111.353C315.426 104.361 330.243 95.7035 330.326 95.204C330.326 94.3716 323.5 90.043 318.506 87.6289C316.258 86.63 314.51 85.5479 314.51 85.2149C314.51 84.8819 316.092 83.883 318.089 83.0506C323.25 80.6365 354.8 62.323 355.049 61.4906C355.382 60.6582 326.081 43.7599 324.416 43.7599C323.75 43.7599 319.504 45.9242 314.926 48.588Z" fill="#F5ECDA"/>
<path d="M385.184 87.2964C363.125 99.2834 348.641 107.441 348.641 107.941C348.641 108.69 410.823 144.484 412.238 144.484C412.821 144.484 419.564 140.988 426.972 136.743C434.464 132.414 444.453 126.837 449.198 124.173C453.943 121.509 457.689 119.012 457.522 118.596C457.19 117.514 396.089 82.8845 394.508 82.8845C393.758 82.8845 389.596 84.8824 385.184 87.2964Z" fill="#F5ECDA"/>
<path d="M79.7676 97.6999C48.5514 115.181 43.1406 118.261 43.1406 119.093C43.1406 119.843 78.0195 140.32 79.2681 140.32C80.267 140.32 131.378 110.936 131.378 110.436C131.378 109.77 96.2497 89.5421 95.0843 89.5421C94.6681 89.5421 87.7589 93.2048 79.7676 97.6999Z" fill="#F5ECDA"/>
<path d="M38.9766 150.31C38.9766 175.2 38.9766 175.2 41.7236 176.615C43.1387 177.364 51.2133 182.109 59.4543 187.02C67.7786 192.015 74.9375 196.094 75.5202 196.094C76.1862 196.094 76.4359 189.185 76.4359 171.121C76.4359 146.148 76.4359 146.148 73.3559 144.15C67.3624 140.321 40.7247 125.337 39.809 125.337C39.2263 125.337 38.9766 133.661 38.9766 150.31Z" fill="#F5ECDA"/>
<path d="M437.712 137.405C416.485 149.392 416.485 149.392 415.902 153.388C414.986 160.13 415.153 198.422 416.069 199.005C416.568 199.338 424.559 195.176 433.799 189.765C443.039 184.437 452.696 178.86 455.193 177.362C459.771 174.781 459.771 174.781 460.021 150.058C460.104 136.489 459.938 125.335 459.605 125.335C459.188 125.335 449.366 130.746 437.712 137.405Z" fill="#F5ECDA"/>
<path d="M230.432 151.061C169.082 185.69 166.002 187.438 165.669 188.437C165.586 188.853 170.247 191.933 176.074 195.263C181.901 198.676 187.312 201.756 188.061 202.172C189.227 202.921 199.715 197.177 242.502 172.371C245 170.956 245 170.956 251.243 174.785C254.656 176.866 257.986 178.614 258.735 178.614C260.233 178.614 281.21 166.877 281.21 166.044C281.21 165.545 244.084 143.569 243.585 143.735C243.418 143.735 237.508 147.065 230.432 151.061Z" fill="#F5ECDA"/>
<path d="M109.733 209.83C109.733 233.887 109.567 253.532 109.317 253.532C108.984 253.532 100.909 248.871 53.0446 221.4C46.3852 217.571 40.4749 214.408 39.8922 214.408C39.2263 214.408 38.9766 222.483 38.9766 244.292C38.9766 274.177 38.9766 274.177 47.9668 279.421C52.8781 282.251 58.6219 285.664 60.8695 286.996C63.0338 288.245 65.1981 289.327 65.6976 289.327C66.197 289.327 66.4468 284.332 66.4468 275.092C66.3635 267.267 66.53 260.691 66.7797 260.441C67.0295 260.192 67.6954 260.358 68.2781 260.858C68.8608 261.357 78.184 266.851 88.9224 273.011C108.484 284.332 108.484 284.332 108.901 346.515C109.317 408.614 109.317 408.614 120.971 415.523C127.381 419.352 133.124 422.432 133.707 422.516C134.456 422.516 134.706 416.272 134.706 393.797C134.706 377.981 134.873 365.078 135.039 365.078C135.205 365.078 146.443 371.654 159.929 379.645C173.497 387.637 184.985 394.213 185.484 394.213C186.067 394.213 186.317 389.135 186.15 378.647C185.9 363.163 185.9 363.163 178.409 358.751C174.33 356.337 162.842 349.761 153.019 344.017C135.122 333.612 135.122 333.612 134.706 256.363C134.29 179.113 134.29 179.113 123.052 172.62C116.892 169.124 111.315 166.21 110.815 166.127C109.983 166.127 109.733 175.367 109.733 209.83Z" fill="#F5ECDA"/>
<path d="M379.855 170.449C378.024 171.448 365.371 178.524 351.803 186.266C326.996 200.334 326.996 200.334 326.996 236.544C326.996 263.515 327.246 272.672 327.995 272.672C328.911 272.672 344.227 264.181 351.137 259.769C354.466 257.688 354.466 257.688 354.466 236.211C354.55 214.818 354.55 214.818 367.952 207.326C375.36 203.164 382.02 199.168 382.935 198.336C384.267 197.087 384.434 195.422 384.434 183.269C384.434 175.694 384.184 169.367 383.851 169.201C383.435 168.951 381.687 169.534 379.855 170.449Z" fill="#F5ECDA"/>
<path d="M160.512 251.866C160.512 309.303 160.512 309.303 162.426 310.386C164.258 311.634 213.121 340.187 236.013 353.505C243.006 357.584 249.082 360.914 249.499 360.914C250.081 360.914 250.414 355.753 250.414 345.681C250.414 328.616 254.993 333.028 210.458 306.973C203.798 303.06 195.807 298.315 192.727 296.484C187.066 293.071 187.066 293.071 187.149 251.449C187.149 218.818 186.983 209.495 186.151 208.496C184.902 206.998 162.843 194.428 161.427 194.428C160.761 194.428 160.512 210.91 160.512 251.866Z" fill="#F5ECDA"/>
<path d="M247.833 208.995C236.179 215.571 226.606 221.398 226.44 221.814C226.19 222.48 233.599 227.142 246.252 234.217C250.83 236.798 250.83 236.798 271.641 224.811C283.128 218.235 292.451 212.408 292.451 211.825C292.451 211.242 288.373 208.329 283.295 205.415C278.3 202.502 272.973 199.422 271.557 198.506C268.977 196.924 268.977 196.924 247.833 208.995Z" fill="#F5ECDA"/>
<path d="M433.55 230.14C394.176 252.283 378.276 261.356 339.901 283.249C320.672 294.237 297.614 307.39 288.707 312.468C263.9 326.452 257.574 330.198 256.825 331.281C255.992 332.446 256.409 364.744 257.241 365.577C257.574 365.91 266.231 361.331 276.387 355.504C331.827 323.539 426.058 269.597 443.539 259.775C451.53 255.28 458.772 251.034 459.605 250.368C460.853 249.286 461.02 247.288 461.02 232.638C461.02 223.564 460.77 215.989 460.354 215.739C460.021 215.573 447.951 221.982 433.55 230.14Z" fill="#F5ECDA"/>
<path d="M275.806 228.973C265.317 235.049 255.828 240.627 254.829 241.376C252.914 242.791 252.914 242.874 252.914 266.432C252.914 282.997 253.164 290.156 253.83 290.156C255.245 290.156 278.22 276.837 279.385 275.339C280.135 274.34 280.384 271.427 280.301 265.683C280.135 261.104 280.384 257.275 280.884 257.109C281.3 256.942 285.046 254.861 289.125 252.447C296.617 248.035 296.617 248.035 296.866 232.885C297.033 221.065 296.866 217.735 296.034 217.818C295.451 217.901 286.378 222.896 275.806 228.973Z" fill="#F5ECDA"/>
<path d="M220.945 227.478C220.695 227.811 220.445 238.716 220.445 251.868C220.445 273.594 220.612 275.842 221.944 277.007C224.108 278.839 245.252 290.992 246.251 290.992C246.833 290.992 247 282.918 246.917 266.269C246.667 241.463 246.667 241.463 236.261 235.386C222.277 227.228 221.527 226.895 220.945 227.478Z" fill="#F5ECDA"/>
<path d="M441.458 305.062C423.977 314.968 423.977 314.968 423.727 330.035C423.644 338.692 423.811 345.102 424.31 345.102C424.726 345.102 432.884 340.606 442.374 335.196C459.772 325.29 459.772 325.29 460.021 310.223C460.105 301.898 459.938 295.156 459.605 295.156C459.189 295.156 451.114 299.651 441.458 305.062Z" fill="#F5ECDA"/>
<path d="M38.9766 342.096C38.9766 361.492 39.2263 365.904 40.142 366.653C42.223 368.401 74.7711 387.547 75.6035 387.547C76.1029 387.547 76.4359 378.806 76.4359 363.49C76.4359 339.516 76.4359 339.516 58.2889 328.944C48.2998 323.2 39.8922 318.455 39.5593 318.455C39.2263 318.455 38.9766 329.11 38.9766 342.096Z" fill="#F5ECDA"/>
<path d="M372.283 336.193C366.289 339.44 360.795 342.686 359.963 343.352C358.881 344.268 358.631 346.182 358.631 354.174C358.631 363.83 358.631 363.83 350.557 368.408C346.145 370.905 342.232 373.07 341.983 373.236C341.65 373.319 337.987 371.405 333.741 368.824C329.579 366.327 325.917 364.246 325.667 364.246C325.167 364.246 263.568 399.541 259.405 402.205C256.242 404.203 256.242 404.203 256.242 416.689C256.242 424.347 256.575 429.176 257.075 429.176C257.824 429.176 264.899 425.18 307.77 400.29C314.346 396.544 320.006 393.381 320.256 393.381C320.506 393.381 322.337 394.213 324.335 395.212C327.831 397.127 327.831 397.127 327.831 425.596C327.831 441.329 328.081 454.148 328.414 454.148C329.33 454.148 349.474 442.578 352.638 440.247C355.301 438.249 355.301 438.249 355.301 415.191C355.385 392.132 355.385 392.132 369.869 383.808C384.436 375.567 384.436 375.567 384.436 352.842C384.436 340.355 384.187 330.116 383.854 330.116C383.438 330.116 378.276 332.863 372.283 336.193Z" fill="#F5ECDA"/>
<path d="M442.291 368.322C424.81 378.145 424.81 378.145 424.56 390.465C424.477 397.291 424.644 403.118 424.976 403.451C425.393 403.784 433.551 399.455 443.123 393.795C460.605 383.556 460.605 383.556 460.854 371.652C460.937 365.159 460.771 359.498 460.438 359.165C460.105 358.833 451.947 362.995 442.291 368.322Z" fill="#F5ECDA"/>
<path d="M221.113 388.131C220.947 388.464 220.947 395.041 221.113 402.782C221.446 416.684 221.446 416.684 231.186 422.428C243.672 429.67 248.75 432.5 249.666 432.5C250.082 432.5 250.415 426.174 250.415 418.349C250.415 404.281 250.415 404.281 240.675 398.537C224.942 389.297 221.446 387.466 221.113 388.131Z" fill="#F5ECDA"/>
<path d="M166.754 416.85C166.504 417.516 166.421 423.926 166.504 431.251C166.754 444.487 166.754 444.487 179.656 452.228C186.732 456.474 192.725 459.637 192.975 459.304C193.225 458.971 193.225 452.395 192.975 444.57C192.559 430.502 192.559 430.502 184.651 425.84C168.502 416.351 167.17 415.685 166.754 416.85Z" fill="#F5ECDA"/>
<path d="M275.805 441.661C255.826 453.065 255.826 453.065 255.577 474.875C255.41 492.523 255.577 496.602 256.492 496.602C257.491 496.602 293.619 475.874 296.033 473.959C296.782 473.294 297.032 467.883 297.032 451.983C297.032 440.413 296.782 430.756 296.449 430.59C296.033 430.34 286.793 435.335 275.805 441.661Z" fill="#F5ECDA"/>
<path d="M221.695 438.499C221.445 439.081 221.362 448.571 221.445 459.559C221.695 479.454 221.695 479.454 234.598 487.196C241.673 491.441 248 494.938 248.583 494.938C249.415 494.938 249.581 490.442 249.415 473.96C249.165 452.983 249.165 452.983 240.008 447.739C221.861 437.167 222.111 437.333 221.695 438.499Z" fill="#F5ECDA"/>
</svg>
