<svg xmlns="http://www.w3.org/2000/svg" width="1200" height="1200" fill="none"><g clip-path="url(#a)"><path fill="#151515" d="M1197 0H3a3 3 0 0 0-3 3v1194c0 1.66 1.343 3 3 3h1194c1.66 0 3-1.34 3-3V3c0-1.657-1.34-3-3-3"/><g opacity=".5"><g opacity=".5"><path fill="#050505" d="M600.709 736.501c-75.454 0-136.621-61.167-136.621-136.62S525.255 463.26 600.709 463.26c75.453 0 136.62 61.167 136.62 136.621 0 75.453-61.167 136.62-136.62 136.62"/><path stroke="#363636" stroke-width="2.418" d="M600.709 736.501c-75.454 0-136.621-61.167-136.621-136.62S525.255 463.26 600.709 463.26c75.453 0 136.62 61.167 136.62 136.621 0 75.453-61.167 136.62-136.62 136.62Z"/></g><path stroke="url(#b)" stroke-width="2.418" d="m405.984 796.598 391.441-391.441"/><path stroke="url(#c)" stroke-width="2.418" d="M404.846 598.672h391.726"/><path stroke="url(#d)" stroke-width="2.418" d="M599.5 795.743V404.018"/><path stroke="url(#e)" stroke-width="2.418" d="m795.716 796.598-391.441-391.44"/><path fill="#fff" d="M600.708 656.704c-31.384 0-56.825-25.441-56.825-56.824 0-31.384 25.441-56.825 56.825-56.825 31.383 0 56.824 25.441 56.824 56.825 0 31.383-25.441 56.824-56.824 56.824"/><mask id="f" width="40" height="40" x="581" y="580" maskUnits="userSpaceOnUse" style="mask-type:luminance"><path fill="#fff" d="M581.363 580.535h38.689v38.689h-38.689z"/></mask><g mask="url(#f)"><path fill="#666" fill-rule="evenodd" d="M616.425 586.58h-31.434v16.176l3.553-3.554.531-.531h9.068l.074-.074 8.463-8.463h2.565l7.18 7.181zm-15.715 14.654 3.698 3.699 1.283 1.282-2.565 2.565-1.282-1.283-5.2-5.199h-6.066l-5.514 5.514-.073.073v2.876a2.418 2.418 0 0 0 2.418 2.418h26.598c.641 0 1.256-.255 1.71-.708a2.42 2.42 0 0 0 .708-1.71v-8.317l-8.463-8.463-7.181 7.181zm-19.347 5.442v4.085a6.046 6.046 0 0 0 6.046 6.045h26.598a6.04 6.04 0 0 0 4.275-1.77 6.05 6.05 0 0 0 1.77-4.275v-7.108l1.356-1.355-1.282-1.283-.074-.073v-17.989h-38.689v23.43l-.146.146z" clip-rule="evenodd"/></g><path stroke="#C9C9C9" stroke-width="2.418" d="M600.708 656.704c-31.384 0-56.825-25.441-56.825-56.824 0-31.384 25.441-56.825 56.825-56.825 31.383 0 56.824 25.441 56.824 56.825 0 31.383-25.441 56.824-56.824 56.824Z"/></g></g><defs><linearGradient id="b" x1="-nan" x2="-nan" y1="-nan" y2="-nan" gradientUnits="userSpaceOnUse"><stop stop-color="#C9C9C9" stop-opacity="0"/><stop offset=".208" stop-color="#C9C9C9"/><stop offset=".792" stop-color="#C9C9C9"/><stop offset="1" stop-color="#C9C9C9" stop-opacity="0"/></linearGradient><linearGradient id="c" x1="-nan" x2="-nan" y1="-nan" y2="-nan" gradientUnits="userSpaceOnUse"><stop stop-color="#C9C9C9" stop-opacity="0"/><stop offset=".208" stop-color="#C9C9C9"/><stop offset=".792" stop-color="#C9C9C9"/><stop offset="1" stop-color="#C9C9C9" stop-opacity="0"/></linearGradient><linearGradient id="d" x1="-nan" x2="-nan" y1="-nan" y2="-nan" gradientUnits="userSpaceOnUse"><stop stop-color="#C9C9C9" stop-opacity="0"/><stop offset=".208" stop-color="#C9C9C9"/><stop offset=".792" stop-color="#C9C9C9"/><stop offset="1" stop-color="#C9C9C9" stop-opacity="0"/></linearGradient><linearGradient id="e" x1="404.849" x2="796.971" y1="403.904" y2="796.021" gradientUnits="userSpaceOnUse"><stop stop-color="#C9C9C9" stop-opacity="0"/><stop offset=".208" stop-color="#C9C9C9"/><stop offset=".792" stop-color="#C9C9C9"/><stop offset="1" stop-color="#C9C9C9" stop-opacity="0"/></linearGradient><clipPath id="a"><path fill="#fff" d="M0 0h1200v1200H0z"/></clipPath></defs></svg>